<?xml version="1.0" encoding="UTF-8"?>
<svg version="1.1" xmlns="http://www.w3.org/2000/svg" width="294" height="44">
<path d="M0 0 C97.02 0 194.04 0 294 0 C294 14.52 294 29.04 294 44 C196.98 44 99.96 44 0 44 C0 29.48 0 14.96 0 0 Z " fill="#FCF2E0" transform="translate(0,0)"/>
<path d="M0 0 C97.02 0 194.04 0 294 0 C294 14.52 294 29.04 294 44 C196.98 44 99.96 44 0 44 C0 29.48 0 14.96 0 0 Z M2 3 C2 15.54 2 28.08 2 41 C97.37 41 192.74 41 291 41 C291 28.46 291 15.92 291 3 C195.63 3 100.26 3 2 3 Z " fill="#000000" transform="translate(0,0)"/>
<path d="M0 0 C9.67528352 9.67528352 2 27.31708283 2 41 C97.37 41 192.74 41 291 41 C291 41.99 291 42.98 291 44 C194.97 44 98.94 44 0 44 C0 29.48 0 14.96 0 0 Z " fill="#1E1E1E" transform="translate(0,0)"/>
<path d="M0 0 C2.7302389 -0.1083667 5.45614543 -0.18746694 8.1875 -0.25 C8.95642578 -0.28351562 9.72535156 -0.31703125 10.51757812 -0.3515625 C14.50700175 -0.42005046 16.52204898 -0.28874919 20.01953125 1.82421875 C22 4 22 4 22.5 7.0625 C22 10 22 10 20.625 11.875 C19 13 19 13 17 13 C17.495 13.78375 17.99 14.5675 18.5 15.375 C20 18 20 18 20 20 C21.32 20 22.64 20 24 20 C24 21.32 24 22.64 24 24 C20.8125 24.5 20.8125 24.5 17 24 C15.3977949 22.05384326 14.33705246 20.11312271 13.23828125 17.84765625 C12.13879944 15.80822265 12.13879944 15.80822265 9.85546875 15.24609375 C9.24316406 15.16488281 8.63085938 15.08367188 8 15 C8 16.65 8 18.3 8 20 C8.66 20 9.32 20 10 20 C10 21.32 10 22.64 10 24 C6.37 24 2.74 24 -1 24 C-1 22.68 -1 21.36 -1 20 C-0.01 20 0.98 20 2 20 C2 14.39 2 8.78 2 3 C1.34 3 0.68 3 0 3 C0 2.01 0 1.02 0 0 Z " fill="#2F2F2D" transform="translate(46,7)"/>
<path d="M0 0 C3.19329624 -0.66527005 5.82292583 -0.81148179 9 0 C13.70741014 4.24637513 16.76244605 9.60407674 20 15 C20.33 11.04 20.66 7.08 21 3 C20.01 3 19.02 3 18 3 C18 2.01 18 1.02 18 0 C21.63 0 25.26 0 29 0 C29 0.99 29 1.98 29 3 C28.01 3 27.02 3 26 3 C26 9.93 26 16.86 26 24 C20 24 20 24 18.21728516 22.43945312 C17.74597168 21.72724609 17.2746582 21.01503906 16.7890625 20.28125 C16.26699219 19.51425781 15.74492187 18.74726563 15.20703125 17.95703125 C14.68496094 17.14621094 14.16289062 16.33539062 13.625 15.5 C13.07972656 14.68917969 12.53445312 13.87835938 11.97265625 13.04296875 C10.63005837 11.04084911 9.31256099 9.02193861 8 7 C7.67 11.29 7.34 15.58 7 20 C7.99 20 8.98 20 10 20 C10 21.32 10 22.64 10 24 C6.7 24 3.4 24 0 24 C0 22.68 0 21.36 0 20 C0.99 20 1.98 20 3 20 C3 14.39 3 8.78 3 3 C2.01 3 1.02 3 0 3 C0 2.01 0 1.02 0 0 Z " fill="#282827" transform="translate(135,7)"/>
<path d="M0 0 C1.65 0 3.3 0 5 0 C5.25692627 0.57032959 5.51385254 1.14065918 5.77856445 1.72827148 C6.94576981 4.30305873 8.12887332 6.87022291 9.3125 9.4375 C9.71662109 10.33533203 10.12074219 11.23316406 10.53710938 12.15820312 C10.93349609 13.01220703 11.32988281 13.86621094 11.73828125 14.74609375 C12.09962158 15.53685303 12.46096191 16.3276123 12.83325195 17.14233398 C13.93346827 19.33070005 13.93346827 19.33070005 17 20 C17 21.32 17 22.64 17 24 C13.37 24 9.74 24 6 24 C6 22.68 6 21.36 6 20 C6.66 20 7.32 20 8 20 C8 19.01 8 18.02 8 17 C4.04 17 0.08 17 -4 17 C-4 17.99 -4 18.98 -4 20 C-3.34 20 -2.68 20 -2 20 C-2 21.32 -2 22.64 -2 24 C-5.3 24 -8.6 24 -12 24 C-12 20 -12 20 -10.64135742 18.50073242 C-10.09970947 18.00549072 -9.55806152 17.51024902 -9 17 C-7.79717073 15.09112377 -7.79717073 15.09112377 -6.73828125 12.98828125 C-6.34189453 12.23095703 -5.94550781 11.47363281 -5.53710938 10.69335938 C-5.13298828 9.90767578 -4.72886719 9.12199219 -4.3125 8.3125 C-3.89677734 7.51521484 -3.48105469 6.71792969 -3.05273438 5.89648438 C-2.03012025 3.93353543 -1.0127632 1.96804438 0 0 Z " fill="#2F2E2D" transform="translate(100,7)"/>
<path d="M0 0 C3.3 0 6.6 0 10 0 C10 0.99 10 1.98 10 3 C9.01 3.495 9.01 3.495 8 4 C7.34444881 6.52733235 7.34444881 6.52733235 7 9 C10.23056212 7.62735773 11.82168287 6.19396081 13.875 3.375 C16.56876125 0.05590132 16.56876125 0.05590132 20.375 -0.4375 C21.24125 -0.293125 22.1075 -0.14875 23 0 C23.33 1.65 23.66 3.3 24 5 C23.13375 5.185625 23.13375 5.185625 22.25 5.375 C17.89068952 6.54631572 17.89068952 6.54631572 14.9375 9.75 C15.03985963 13.43494666 17.6317309 15.34291759 20 18 C20 18.66 20 19.32 20 20 C21.32 20 22.64 20 24 20 C24 21.32 24 22.64 24 24 C20.9375 24.625 20.9375 24.625 17 24 C14.87255528 21.56925359 13.24298903 19.05085326 11.578125 16.28515625 C10.1396032 13.7126873 10.1396032 13.7126873 7 13 C7 15.31 7 17.62 7 20 C7.99 20 8.98 20 10 20 C10 21.32 10 22.64 10 24 C6.7 24 3.4 24 0 24 C0 22.68 0 21.36 0 20 C0.66 20 1.32 20 2 20 C2 14.39 2 8.78 2 3 C1.34 3 0.68 3 0 3 C0 2.01 0 1.02 0 0 Z " fill="#2D2D2B" transform="translate(183,7)"/>
<path d="M0 0 C6.93 0 13.86 0 21 0 C21 1.98 21 3.96 21 6 C19.68 6 18.36 6 17 6 C17 5.34 17 4.68 17 4 C14.03 4 11.06 4 8 4 C8 5.98 8 7.96 8 10 C10.97 10 13.94 10 17 10 C17 11.32 17 12.64 17 14 C14.03 14 11.06 14 8 14 C8 15.98 8 17.96 8 20 C9.32 20 10.64 20 12 20 C12 21.32 12 22.64 12 24 C8.04 24 4.08 24 0 24 C0 22.68 0 21.36 0 20 C0.99 20 1.98 20 3 20 C3 14.39 3 8.78 3 3 C2.01 3 1.02 3 0 3 C0 2.01 0 1.02 0 0 Z " fill="#2B2A29" transform="translate(5,7)"/>
<path d="M0 0 C3.3 0 6.6 0 10 0 C9.95875 0.928125 9.9175 1.85625 9.875 2.8125 C9.72863661 6.15809719 9.72863661 6.15809719 12 9 C12.66 9 13.32 9 14 9 C16.29013653 5.5647952 16.17842973 4.014669 16 0 C18.64 0 21.28 0 24 0 C23.47263518 4.16764695 22.23761339 6.29036658 19.5 9.4375 C16.64506515 12.92881092 15.11933974 15.34575019 15 20 C15.99 20 16.98 20 18 20 C18 21.32 18 22.64 18 24 C14.37 24 10.74 24 7 24 C7 22.68 7 21.36 7 20 C7.99 20 8.98 20 10 20 C9.85252617 13.06873011 6.64018377 8.99382365 2 4 C1.34 3.67 0.68 3.34 0 3 C0 2.01 0 1.02 0 0 Z " fill="#2A2928" transform="translate(263,7)"/>
<path d="M0 0 C3.63 0 7.26 0 11 0 C11 0.99 11 1.98 11 3 C10.01 3 9.02 3 8 3 C8 8.28 8 13.56 8 19 C10.97 19 13.94 19 17 19 C17 18.01 17 17.02 17 16 C18.32 16 19.64 16 21 16 C21 18.64 21 21.28 21 24 C14.07 24 7.14 24 0 24 C0 22.68 0 21.36 0 20 C0.99 20 1.98 20 3 20 C3 14.39 3 8.78 3 3 C2.01 3 1.02 3 0 3 C0 2.01 0 1.02 0 0 Z " fill="#31302E" transform="translate(226,7)"/>
<path d="M0 0 C7.75 -0.125 7.75 -0.125 10 1 C9.625 3.4375 9.625 3.4375 9 6 C6.04335481 7.4783226 3.25770263 7.06032783 0 7 C0 4.69 0 2.38 0 0 Z " fill="#E6DDCC" transform="translate(53,11)"/>
<path d="M0 0 C0.66 0 1.32 0 2 0 C3.25664978 2.90600261 4 4.79604584 4 8 C2.02 8 0.04 8 -2 8 C-1.47731534 5.23723823 -0.89130413 2.6739124 0 0 Z " fill="#E6DDCC" transform="translate(101,12)"/>
</svg>
