<?xml version="1.0" encoding="UTF-8"?>
<svg version="1.1" xmlns="http://www.w3.org/2000/svg" width="221" height="266">
<path d="M0 0 C2.97 0 5.94 0 9 0 C11.64 8.25 14.28 16.5 17 25 C18.87922366 22.18116451 19.7292963 20.08947666 20.7265625 16.89453125 C21.0359375 15.91162109 21.3453125 14.92871094 21.6640625 13.91601562 C21.98117188 12.89185547 22.29828125 11.86769531 22.625 10.8125 C22.94984375 9.77673828 23.2746875 8.74097656 23.609375 7.67382812 C24.41052385 5.11722077 25.2058222 2.55878141 26 0 C29.3 0 32.6 0 36 0 C38.64 8.25 41.28 16.5 44 25 C46.41663017 18.95842458 48.74898414 13.04165264 50.75 6.875 C51.08064453 5.86953125 51.08064453 5.86953125 51.41796875 4.84375 C51.94816741 3.23010191 52.47452413 1.61519221 53 0 C55.97 0 58.94 0 62 0 C60.35102994 8.8110629 57.32905291 17.12594095 54.375 25.5625 C53.85370978 27.06299239 53.33287262 28.56364226 52.8125 30.06445312 C51.54688478 33.71147271 50.27515038 37.35630393 49 41 C46.03 41 43.06 41 40 41 C36.5886313 32.78744571 33.74922138 24.45047555 31 16 C30.6443396 17.08269165 30.6443396 17.08269165 30.28149414 18.18725586 C29.21159761 21.43836757 28.13711282 24.68794431 27.0625 27.9375 C26.68931641 29.07380859 26.31613281 30.21011719 25.93164062 31.38085938 C25.57392578 32.46044922 25.21621094 33.54003906 24.84765625 34.65234375 C24.3527771 36.15269165 24.3527771 36.15269165 23.84790039 37.68334961 C23 40 23 40 22 41 C18.99996555 41.14177857 16.00242765 41.04228771 13 41 C9.62680861 32.99623106 6.89318277 24.83213207 4.25 16.5625 C3.83485198 15.28443484 3.41948863 14.00643961 3.00390625 12.72851562 C2.61589844 11.52001953 2.22789063 10.31152344 1.828125 9.06640625 C1.4765332 7.97271729 1.12494141 6.87902832 0.76269531 5.75219727 C0 3 0 3 0 0 Z " fill="#E9EB12" transform="translate(78,112)"/>
<path d="M0 0 C5.6925 -0.12375 5.6925 -0.12375 11.5 -0.25 C12.68013672 -0.28641602 13.86027344 -0.32283203 15.07617188 -0.36035156 C21.8703424 -0.43145868 26.26249992 0.27330602 32 4 C34.97209239 8.45813858 34.75193215 12.77369931 34 18 C32.61449427 20.70920452 31.33388175 21.94396132 29 24 C28.34 24 27.68 24 27 24 C27.62648437 24.89203125 28.25296875 25.7840625 28.8984375 26.703125 C29.72409726 27.88531965 30.54961039 29.06761672 31.375 30.25 C31.7875 30.83652344 32.2 31.42304688 32.625 32.02734375 C34.64704088 34.92995082 36.54466545 37.76947715 38 41 C34.04508765 41.94737444 30.92234584 42.17819514 27 41 C24.36894674 38.39887696 22.49377797 35.28580572 20.70166016 32.06787109 C18.58333594 28.31323341 18.58333594 28.31323341 14.91943359 26.33544922 C12.46019865 25.98820024 12.46019865 25.98820024 9 26 C9 30.95 9 35.9 9 41 C6.03 41 3.06 41 0 41 C0 27.47 0 13.94 0 0 Z M9 8 C9 11.3 9 14.6 9 18 C11.10388569 18.05402274 13.20816714 18.09280256 15.3125 18.125 C16.48425781 18.14820313 17.65601563 18.17140625 18.86328125 18.1953125 C22.16393661 18.25320618 22.16393661 18.25320618 25 16 C25.41666667 13 25.41666667 13 25 10 C23.08593338 7.64358476 23.08593338 7.64358476 19.7421875 7.8046875 C17.82792969 7.83949219 17.82792969 7.83949219 15.875 7.875 C14.59367188 7.89304687 13.31234375 7.91109375 11.9921875 7.9296875 C11.00476563 7.95289062 10.01734375 7.97609375 9 8 Z " fill="#EDDF15" transform="translate(182,112)"/>
<path d="M0 0 C10.56 0 21.12 0 32 0 C32 2.64 32 5.28 32 8 C24.74 8 17.48 8 10 8 C10 10.31 10 12.62 10 15 C10.85549438 14.99214478 10.85549438 14.99214478 11.72827148 14.98413086 C14.29800323 14.96341779 16.86771747 14.9503581 19.4375 14.9375 C20.78424805 14.92493164 20.78424805 14.92493164 22.15820312 14.91210938 C23.01220703 14.90888672 23.86621094 14.90566406 24.74609375 14.90234375 C25.53685303 14.89710693 26.3276123 14.89187012 27.14233398 14.88647461 C29 15 29 15 30 16 C30 18.31 30 20.62 30 23 C23.4 23 16.8 23 10 23 C10 26.3 10 29.6 10 33 C17.26 33 24.52 33 32 33 C32 35.64 32 38.28 32 41 C21.44 41 10.88 41 0 41 C0 27.47 0 13.94 0 0 Z " fill="#EED51A" transform="translate(144,112)"/>
<path d="M0 0 C4.74615071 4.74615071 6.24289555 9.41631397 6.38037109 16.0793457 C6.34890205 29.16331567 6.34890205 29.16331567 2 35 C-4.15672793 39.90025284 -9.36673467 40.62196977 -17 40 C-21.33784166 39.06148911 -24.22035175 37.77964825 -27.375 34.625 C-32.07030469 27.04027703 -31.86797714 18.66241183 -31 10 C-29.82340382 5.29361528 -27.80113844 2.65092499 -24 -0.4375 C-16.41782412 -4.38654994 -7.47426601 -4.2540607 0 0 Z M-21 9 C-22.10111689 12.30335066 -22.20226528 14.89832137 -22.25 18.375 C-22.27578125 19.49648437 -22.3015625 20.61796875 -22.328125 21.7734375 C-21.96396428 25.35435126 -21.1562444 27.14851793 -19 30 C-15.2626144 32.4915904 -13.42668417 32.45793285 -9 32 C-6.24670979 30.20437595 -4.47372539 28.94745078 -3 26 C-2.85056144 23.73255726 -2.77855098 21.4596825 -2.75 19.1875 C-2.72421875 17.96417969 -2.6984375 16.74085938 -2.671875 15.48046875 C-3.02397586 11.74568461 -3.73396587 9.94902105 -6 7 C-11.6486371 3.23424193 -16.37907464 4.24316507 -21 9 Z " fill="#E1E91B" transform="translate(70,114)"/>
<path d="M0 0 C11.88 0 23.76 0 36 0 C36 2.64 36 5.28 36 8 C31.71 8 27.42 8 23 8 C23 18.89 23 29.78 23 41 C20.03 41 17.06 41 14 41 C14 30.11 14 19.22 14 8 C9.38 8 4.76 8 0 8 C0 5.36 0 2.72 0 0 Z " fill="#E7EB15" transform="translate(0,112)"/>
<path d="M0 0 C2.97 0 5.94 0 9 0 C7.35102994 8.8110629 4.32905291 17.12594095 1.375 25.5625 C0.85370978 27.06299239 0.33287262 28.56364226 -0.1875 30.06445312 C-1.45311522 33.71147271 -2.72484962 37.35630393 -4 41 C-6.97 41 -9.94 41 -13 41 C-20.86475822 21.87705996 -20.86475822 21.87705996 -19 17 C-18.34 16.01 -17.68 15.02 -17 14 C-15.68 14 -14.36 14 -13 14 C-11.68 17.63 -10.36 21.26 -9 25 C-5.5886313 16.78744571 -2.74922138 8.45047555 0 0 Z " fill="#52C1C8" transform="translate(131,112)"/>
<path d="M0 0 C0.66 0 1.32 0 2 0 C2 0.66 2 1.32 2 2 C5.465 1.505 5.465 1.505 9 1 C9 4.3 9 7.6 9 11 C16.26 11 23.52 11 31 11 C31 13.64 31 16.28 31 19 C20.44 19 9.88 19 -1 19 C-1.020625 16.050625 -1.04125 13.10125 -1.0625 10.0625 C-1.071604 9.13187744 -1.08070801 8.20125488 -1.09008789 7.24243164 C-1.09258545 6.51403076 -1.09508301 5.78562988 -1.09765625 5.03515625 C-1.10289307 4.2862915 -1.10812988 3.53742676 -1.11352539 2.76586914 C-1 1 -1 1 0 0 Z " fill="#D1CB2F" transform="translate(145,134)"/>
<path d="M0 0 C0.33 0.66 0.66 1.32 1 2 C1.66 2.33 2.32 2.66 3 3 C2.67 3.99 2.34 4.98 2 6 C1.85445167 8.1216468 1.77919588 10.24856706 1.75 12.375 C1.72421875 13.49648437 1.6984375 14.61796875 1.671875 15.7734375 C2.03886202 19.38214323 2.70123121 21.2050212 5 24 C7.21234526 24.90977594 7.21234526 24.90977594 9.625 25.125 C12.0390625 25.4453125 12.0390625 25.4453125 14 26 C14.33 26.99 14.66 27.98 15 29 C13.68 29.33 12.36 29.66 11 30 C12.25541557 32.51083114 13.50063488 32.87125446 16 34 C9.52626368 34.35817803 3.73489793 34.3320819 -2 31 C-7.25779845 25.74220155 -8.29093968 20.66238701 -8.3125 13.375 C-8.32925781 12.06273437 -8.34601562 10.75046875 -8.36328125 9.3984375 C-8 6 -8 6 -6.73046875 4.0390625 C-5 3 -5 3 -1 3 C-0.67 2.01 -0.34 1.02 0 0 Z " fill="#ECEC0E" transform="translate(47,120)"/>
<path d="M0 0 C1.32 0 2.64 0 4 0 C4 27.06 4 54.12 4 82 C2.68 82 1.36 82 0 82 C0 54.94 0 27.88 0 0 Z " fill="#ECEC0D" transform="translate(107,184)"/>
<path d="M0 0 C1.32 0 2.64 0 4 0 C4 27.06 4 54.12 4 82 C2.68 82 1.36 82 0 82 C0 54.94 0 27.88 0 0 Z " fill="#EBEB0F" transform="translate(107,0)"/>
<path d="M0 0 C2.97 0 5.94 0 9 0 C10.03185089 2.93404558 11.05076794 5.87152276 12.0625 8.8125 C12.35705078 9.64587891 12.65160156 10.47925781 12.95507812 11.33789062 C13.3659668 12.54155273 13.3659668 12.54155273 13.78515625 13.76953125 C14.04176025 14.50792236 14.29836426 15.24631348 14.56274414 16.00708008 C15 18 15 18 14 21 C11.4429149 18.77644774 10.75829088 17.24981807 10 14 C9.34 13.67 8.68 13.34 8 13 C9.38579334 16.1711518 10.7854729 19.33599588 12.1875 22.5 C12.57486328 23.386875 12.96222656 24.27375 13.36132812 25.1875 C15.85011969 30.7821389 18.63446418 35.88295087 22 41 C19.03 41 16.06 41 13 41 C9.66436335 32.97458064 6.89533052 24.83885168 4.25 16.5625 C3.83485198 15.28443484 3.41948863 14.00643961 3.00390625 12.72851562 C2.61589844 11.52001953 2.22789063 10.31152344 1.828125 9.06640625 C1.4765332 7.97271729 1.12494141 6.87902832 0.76269531 5.75219727 C0 3 0 3 0 0 Z " fill="#52C1C7" transform="translate(78,112)"/>
<path d="M0 0 C0.99 0.33 1.98 0.66 3 1 C3.66666667 3 4.33333333 5 5 7 C5.99 7.33 6.98 7.66 8 8 C8.66 9.32 9.32 10.64 10 12 C10.99 8.7 11.98 5.4 13 2 C13.99 2 14.98 2 16 2 C19.42715987 7.3463694 19.27903721 11.04063403 18 17 C17.10232416 20.36980929 16.09855497 23.69051678 15 27 C9.95402326 25.31800775 8.37758809 20.54421513 6 16 C0 3.36286201 0 3.36286201 0 0 Z " fill="#DBE723" transform="translate(86,125)"/>
<path d="M0 0 C7.26 0 14.52 0 22 0 C22 2.64 22 5.28 22 8 C17.71 8 13.42 8 9 8 C8.67 9.32 8.34 10.64 8 12 C6.68 12 5.36 12 4 12 C2.66666667 8 1.33333333 4 0 0 Z " fill="#53C2C7" transform="translate(14,112)"/>
<path d="M0 0 C1.32 0 2.64 0 4 0 C4 13.2 4 26.4 4 40 C2.68 40.66 1.36 41.32 0 42 C0 28.14 0 14.28 0 0 Z " fill="#E5EA16" transform="translate(107,0)"/>
<path d="M0 0 C2.97 0 5.94 0 9 0 C7.85388265 5.73058676 6.47605477 10.71024662 4 16 C1.03 16 -1.94 16 -5 16 C-3.35 10.72 -1.7 5.44 0 0 Z " fill="#EAEB10" transform="translate(131,112)"/>
<path d="M0 0 C1.60875 -0.020625 3.2175 -0.04125 4.875 -0.0625 C5.77992187 -0.07410156 6.68484375 -0.08570313 7.6171875 -0.09765625 C10 0 10 0 12 1 C11.979375 1.9075 11.95875 2.815 11.9375 3.75 C11.85845564 6.85818053 11.85845564 6.85818053 12.625 9.1875 C12.74875 9.785625 12.8725 10.38375 13 11 C12.01 12.485 12.01 12.485 11 14 C7.30406029 14.41620943 3.72880913 14.13007474 0 14 C0 9.38 0 4.76 0 0 Z M4 3 C4 3.66 4 4.32 4 5 C5.32 5 6.64 5 8 5 C8 4.34 8 3.68 8 3 C6.68 3 5.36 3 4 3 Z M4 8 C4 8.99 4 9.98 4 11 C5.65 10.67 7.3 10.34 9 10 C8.67 9.34 8.34 8.68 8 8 C6.68 8 5.36 8 4 8 Z " fill="#FFFFFF" transform="translate(107,161)"/>
<path d="M0 0 C1.32 0 2.64 0 4 0 C5.75 2.5 5.75 2.5 7 5 C7.33 3.35 7.66 1.7 8 0 C9.32 0 10.64 0 12 0 C12 4.95 12 9.9 12 15 C7.70574125 13.92643531 7.25259529 13.4915227 5 10 C4.34 11.65 3.68 13.3 3 15 C2.01 15 1.02 15 0 15 C0 10.05 0 5.1 0 0 Z " fill="#FFFFFF" transform="translate(100,90)"/>
<path d="M0 0 C4.42734904 1.3528011 6.55040063 3.06314386 9 7 C9.75 10.8125 9.75 10.8125 10 14 C12.10211697 13.03336251 12.10211697 13.03336251 14 11 C14.66549451 8.30075428 14.81680763 5.79368363 15 3 C16.625 4.4375 16.625 4.4375 18 7 C17.63169722 10.83989751 16.72719835 14.5456033 15 18 C12.03 18 9.06 18 6 18 C3.49289691 12.06084316 1.39938346 6.29722557 0 0 Z " fill="#D2E52D" transform="translate(112,135)"/>
<path d="M0 0 C3.14581423 -0.02888514 6.29159469 -0.04675923 9.4375 -0.0625 C10.33533203 -0.07087891 11.23316406 -0.07925781 12.15820312 -0.08789062 C13.01220703 -0.09111328 13.86621094 -0.09433594 14.74609375 -0.09765625 C15.93223267 -0.10551147 15.93223267 -0.10551147 17.14233398 -0.11352539 C19 0 19 0 20 1 C20 3.31 20 5.62 20 8 C6.635 8.495 6.635 8.495 -7 9 C-7 8.34 -7 7.68 -7 7 C-7.99 7.33 -8.98 7.66 -10 8 C-10 7.34 -10 6.68 -10 6 C-9.04738281 5.93941406 -8.09476563 5.87882813 -7.11328125 5.81640625 C-5.23189453 5.69072266 -5.23189453 5.69072266 -3.3125 5.5625 C-2.07113281 5.48128906 -0.82976562 5.40007812 0.44921875 5.31640625 C3.38180337 5.05508683 6.13441617 4.65201621 9 4 C6.23776722 1.23776722 3.79293383 1.42143709 0 1 C0 0.67 0 0.34 0 0 Z " fill="#EEE70E" transform="translate(154,127)"/>
<path d="M0 0 C3.96 0 7.92 0 12 0 C12 0.99 12 1.98 12 3 C9.36 3 6.72 3 4 3 C4 3.66 4 4.32 4 5 C5.98 5 7.96 5 10 5 C10 6.32 10 7.64 10 9 C8.02 9 6.04 9 4 9 C4 9.66 4 10.32 4 11 C6.31 11 8.62 11 11 11 C11 12.32 11 13.64 11 15 C9.35425434 15.02688151 7.70838587 15.04634123 6.0625 15.0625 C5.14597656 15.07410156 4.22945312 15.08570312 3.28515625 15.09765625 C1 15 1 15 0 14 C-0.07271741 11.64686445 -0.08370868 9.29166332 -0.0625 6.9375 C-0.05347656 5.64714844 -0.04445312 4.35679688 -0.03515625 3.02734375 C-0.02355469 2.02832031 -0.01195312 1.02929688 0 0 Z " fill="#FFFFFF" transform="translate(53,90)"/>
<path d="M0 0 C5 1 5 1 6.8125 3.5625 C7.204375 4.366875 7.59625 5.17125 8 6 C8.33 4.02 8.66 2.04 9 0 C9.99 0 10.98 0 12 0 C12 4.95 12 9.9 12 15 C8 14 8 14 6.25 11.4375 C5.8375 10.633125 5.425 9.82875 5 9 C4.67 10.98 4.34 12.96 4 15 C2.68 14.67 1.36 14.34 0 14 C0 9.38 0 4.76 0 0 Z " fill="#FFFFFF" transform="translate(66,90)"/>
<path d="M0 0 C1.423125 -0.061875 2.84625 -0.12375 4.3125 -0.1875 C5.51326172 -0.23970703 5.51326172 -0.23970703 6.73828125 -0.29296875 C9 0 9 0 10.8203125 1.30078125 C12.73939546 4.06502326 11.49831976 6.78860597 11 10 C11.81971716 12.84902067 11.81971716 12.84902067 13 15 C10.625 14.6875 10.625 14.6875 8 14 C7.34 13.01 6.68 12.02 6 11 C5.01 10.67 4.02 10.34 3 10 C3 11.65 3 13.3 3 15 C2.01 15 1.02 15 0 15 C0 10.05 0 5.1 0 0 Z M3 3 C3 3.99 3 4.98 3 6 C4.65 6 6.3 6 8 6 C7.67 5.01 7.34 4.02 7 3 C5.68 3 4.36 3 3 3 Z " fill="#FFFFFF" transform="translate(39,90)"/>
<path d="M0 0 C0.763125 1.010625 1.52625 2.02125 2.3125 3.0625 C3.01246094 3.98482422 3.01246094 3.98482422 3.7265625 4.92578125 C7.3125 9.7637919 7.3125 9.7637919 7.3125 11.0625 C3.45202554 11.75361568 0.13975588 12.02187916 -3.6875 11.0625 C-6.7731643 7.76094451 -8.75388925 4.12770213 -10.6875 0.0625 C-3.47446925 -2.50484993 -3.47446925 -2.50484993 0 0 Z " fill="#E2228D" transform="translate(212.6875,141.9375)"/>
<path d="M0 0 C2.375 1.5625 2.375 1.5625 4 4 C4.56645882 7.96521177 4.57590314 10.07855498 2.4375 13.5 C0 15 0 15 -3.625 14.875 C-7 14 -7 14 -9 12 C-9.30078125 9.94140625 -9.30078125 9.94140625 -9.3125 7.5625 C-9.32925781 6.78003906 -9.34601562 5.99757813 -9.36328125 5.19140625 C-8.48209723 -0.12412314 -4.80602406 -0.68657487 0 0 Z M-4 3 C-5.87543354 6.86763446 -5.87543354 6.86763446 -5 11 C-4.01 11.33 -3.02 11.66 -2 12 C-1.34 11.67 -0.68 11.34 0 11 C0 8.69 0 6.38 0 4 C-1.32 3.67 -2.64 3.34 -4 3 Z " fill="#FFFFFF" transform="translate(33,90)"/>
<path d="M0 0 C0.66 0.66 1.32 1.32 2 2 C-4.93 3.485 -4.93 3.485 -12 5 C-11.01 5.66 -10.02 6.32 -9 7 C-9.66 8.32 -10.32 9.64 -11 11 C-12.32 10.67 -13.64 10.34 -15 10 C-15.33 10.66 -15.66 11.32 -16 12 C-17.32 12 -18.64 12 -20 12 C-20.33 12.99 -20.66 13.98 -21 15 C-21.66 15 -22.32 15 -23 15 C-21.81723528 9.51627266 -20.5316586 6.62532688 -16 3 C-10.81674433 0.10933818 -5.8658398 -0.91989748 0 0 Z " fill="#D6E629" transform="translate(62,111)"/>
<path d="M0 0 C3.63 0 7.26 0 11 0 C11 0.99 11 1.98 11 3 C8.69 3 6.38 3 4 3 C4 3.66 4 4.32 4 5 C6.31 5 8.62 5 11 5 C11 5.99 11 6.98 11 8 C8.69 8 6.38 8 4 8 C4 8.99 4 9.98 4 11 C6.31 11 8.62 11 11 11 C11 11.99 11 12.98 11 14 C7.37 14 3.74 14 0 14 C0 9.38 0 4.76 0 0 Z " fill="#FFFFFF" transform="translate(196,161)"/>
<path d="M0 0 C8.91 0 17.82 0 27 0 C25.02 0.99 25.02 0.99 23 2 C22.38382813 2.35320312 21.76765625 2.70640625 21.1328125 3.0703125 C14.22712082 6.69781591 7.65495165 6.39200321 0 6 C0 4.02 0 2.04 0 0 Z " fill="#ED148A" transform="translate(144,112)"/>
<path d="M0 0 C0.66 0 1.32 0 2 0 C2 0.66 2 1.32 2 2 C5.465 1.505 5.465 1.505 9 1 C9.125 4.375 9.125 4.375 9 8 C8.34 8.66 7.68 9.32 7 10 C6.525625 10.639375 6.05125 11.27875 5.5625 11.9375 C4.14068365 13.81429758 2.77576586 15.45585578 1 17 C0.34 17 -0.32 17 -1 17 C-1.02684679 14.35409986 -1.04676357 11.70846904 -1.0625 9.0625 C-1.07087891 8.30775391 -1.07925781 7.55300781 -1.08789062 6.77539062 C-1.09652441 4.85005687 -1.05224333 2.92464419 -1 1 C-0.67 0.67 -0.34 0.34 0 0 Z " fill="#CCA659" transform="translate(145,134)"/>
<path d="M0 0 C3.63 0 7.26 0 11 0 C11 0.99 11 1.98 11 3 C8.69 3 6.38 3 4 3 C4 3.66 4 4.32 4 5 C5.98 5 7.96 5 10 5 C10 6.32 10 7.64 10 9 C8.02 9 6.04 9 4 9 C4 10.98 4 12.96 4 15 C2.68 14.67 1.36 14.34 0 14 C0 9.38 0 4.76 0 0 Z " fill="#FFFFFF" transform="translate(0,90)"/>
<path d="M0 0 C2.97 0.33 5.94 0.66 9 1 C9 4.63 9 8.26 9 12 C6.03 12 3.06 12 0 12 C0 8.04 0 4.08 0 0 Z " fill="#EDDD16" transform="translate(182,141)"/>
<path d="M0 0 C2.97 0 5.94 0 9 0 C8.52188823 1.77111844 8.0424722 3.54188483 7.5625 5.3125 C7.29566406 6.29863281 7.02882812 7.28476563 6.75390625 8.30078125 C6.21920575 10.21517526 5.62855462 12.11433615 5 14 C4.34 14 3.68 14 3 14 C2.67 12.68 2.34 11.36 2 10 C0.68 10.33 -0.64 10.66 -2 11 C-1.85892253 9.54119891 -1.71197585 8.08296449 -1.5625 6.625 C-1.48128906 5.81289062 -1.40007812 5.00078125 -1.31640625 4.1640625 C-1 2 -1 2 0 0 Z " fill="#4DC0CE" transform="translate(126,128)"/>
<path d="M0 0 C-0.33 1.32 -0.66 2.64 -1 4 C-2.98 4 -4.96 4 -7 4 C-7 5.98 -7 7.96 -7 10 C-5.02 10 -3.04 10 -1 10 C-1 11.32 -1 12.64 -1 14 C-8.28358209 14.35820896 -8.28358209 14.35820896 -11 13 C-12.62222327 9.75555346 -12.55531749 6.54662771 -12 3 C-8.88804199 -1.59384277 -4.97166958 -0.99433392 0 0 Z " fill="#FFFFFF" transform="translate(156,161)"/>
<path d="M0 0 C1.32 0 2.64 0 4 0 C4 7.59 4 15.18 4 23 C2.68 23.33 1.36 23.66 0 24 C0 16.08 0 8.16 0 0 Z " fill="#EC4D69" transform="translate(107,184)"/>
<path d="M0 0 C0.33 0 0.66 0 1 0 C1 8.25 1 16.5 1 25 C-0.32 25 -1.64 25 -3 25 C-3.08724706 21.5834948 -3.14047325 18.16727687 -3.1875 14.75 C-3.21263672 13.78191406 -3.23777344 12.81382812 -3.26367188 11.81640625 C-3.27333984 10.88183594 -3.28300781 9.94726562 -3.29296875 8.984375 C-3.3086792 8.12553711 -3.32438965 7.26669922 -3.34057617 6.38183594 C-2.92870391 3.50138732 -1.94496507 2.12670014 0 0 Z " fill="#8B9BA2" transform="translate(110,241)"/>
<path d="M0 0 C2.375 0.3125 2.375 0.3125 5 1 C5.66 1.99 6.32 2.98 7 4 C7.391875 3.34 7.78375 2.68 8.1875 2 C10 0 10 0 12.6875 -0.25 C13.8321875 -0.12625 13.8321875 -0.12625 15 0 C14.65066406 0.50789062 14.30132812 1.01578125 13.94140625 1.5390625 C11.19475288 5.69405656 9.3818364 8.90884805 9 14 C7.68 14 6.36 14 5 14 C4.731875 12.7625 4.46375 11.525 4.1875 10.25 C3.35515759 6.86074962 2.27568097 4.68944114 0 2 C0 1.34 0 0.68 0 0 Z " fill="#FFFFFF" transform="translate(121,161)"/>
<path d="M0 0 C3.68754757 0.49831724 5.60490662 1.10067643 8 4 C8.66 2.68 9.32 1.36 10 0 C11.65 0 13.3 0 15 0 C14.65066406 0.50789062 14.30132812 1.01578125 13.94140625 1.5390625 C11.19475288 5.69405656 9.3818364 8.90884805 9 14 C7.68 14 6.36 14 5 14 C4.9175 12.948125 4.835 11.89625 4.75 10.8125 C3.94044779 6.69727629 2.72699756 5.07886822 0 2 C0 1.34 0 0.68 0 0 Z " fill="#FFFFFF" transform="translate(179,161)"/>
<path d="M0 0 C0.61875 0.495 1.2375 0.99 1.875 1.5 C3.83880904 3.19222773 3.83880904 3.19222773 6 3 C6.33 2.34 6.66 1.68 7 1 C7 1.99 7 2.98 7 4 C7.66 4.33 8.32 4.66 9 5 C7.38405168 7.04119788 5.7143618 9.04072937 4 11 C3.34 11 2.68 11 2 11 C2.33 11.99 2.66 12.98 3 14 C1.68 13.67 0.36 13.34 -1 13 C-1 12.01 -1 11.02 -1 10 C-1.66 10.66 -2.32 11.32 -3 12 C-3.33 11.34 -3.66 10.68 -4 10 C-4.99 10.495 -4.99 10.495 -6 11 C-5.8125 9.125 -5.8125 9.125 -5 7 C-2.4375 5.75 -2.4375 5.75 0 5 C0 3.35 0 1.7 0 0 Z " fill="#EC297E" transform="translate(207,125)"/>
<path d="M0 0 C0.99 0.33 1.98 0.66 3 1 C3.66666667 3 4.33333333 5 5 7 C5.99 7.33 6.98 7.66 8 8 C8.78861011 9.93866652 9.56721649 11.88351877 10.24609375 13.86328125 C11.60448767 17.71323707 13.10457459 21.10457459 16 24 C15.67 24.99 15.34 25.98 15 27 C9.95402326 25.31800775 8.37758809 20.54421513 6 16 C0 3.36286201 0 3.36286201 0 0 Z " fill="#E2E91A" transform="translate(86,125)"/>
<path d="M0 0 C3.96 0 7.92 0 12 0 C12 0.99 12 1.98 12 3 C10.68 3 9.36 3 8 3 C8 6.96 8 10.92 8 15 C6.68 14.67 5.36 14.34 4 14 C4 10.37 4 6.74 4 3 C2.68 3 1.36 3 0 3 C0 2.01 0 1.02 0 0 Z " fill="#FFFFFF" transform="translate(80,90)"/>
<path d="M0 0 C2.97 0 5.94 0 9 0 C9.99 3.3 10.98 6.6 12 10 C9.99759451 9.68143549 7.99788438 9.34578768 6 9 C5.2575 8.9175 4.515 8.835 3.75 8.75 C2 8 2 8 0.75 5.625 C0 3 0 3 0 0 Z " fill="#D2E52D" transform="translate(78,112)"/>
<path d="M0 0 C1.32 0 2.64 0 4 0 C4 3.63 4 7.26 4 11 C6.31 11 8.62 11 11 11 C11 11.99 11 12.98 11 14 C7.37 14 3.74 14 0 14 C0 9.38 0 4.76 0 0 Z " fill="#FFFFFF" transform="translate(210,161)"/>
<path d="M0 0 C0 6.27 0 12.54 0 19 C-1.98 19.99 -1.98 19.99 -4 21 C-4 14.4 -4 7.8 -4 1 C-1 0 -1 0 0 0 Z " fill="#EDEC0D" transform="translate(111,21)"/>
<path d="M0 0 C0.99 0 1.98 0 3 0 C3 3.63 3 7.26 3 11 C5.31 11 7.62 11 10 11 C10 12.32 10 13.64 10 15 C6.7 15 3.4 15 0 15 C0 10.05 0 5.1 0 0 Z " fill="#FFFFFF" transform="translate(13,90)"/>
<path d="M0 0 C4.29 0 8.58 0 13 0 C13 0.99 13 1.98 13 3 C11.35 3 9.7 3 8 3 C8 6.63 8 10.26 8 14 C7.01 14 6.02 14 5 14 C5 10.37 5 6.74 5 3 C3.35 3 1.7 3 0 3 C0 2.01 0 1.02 0 0 Z " fill="#FFFFFF" transform="translate(164,161)"/>
<path d="M0 0 C2.64 0 5.28 0 8 0 C9.17571451 3.67410785 9.07366746 7.16929183 9 11 C7.35 11.33 5.7 11.66 4 12 C2.66666667 8 1.33333333 4 0 0 Z " fill="#51C1C9" transform="translate(14,112)"/>
<path d="M0 0 C2.62664903 0.0867572 5.24978082 0.19357981 7.875 0.3125 C8.62136719 0.33505859 9.36773437 0.35761719 10.13671875 0.38085938 C12.099604 0.47811945 14.05328322 0.73042294 16 1 C16.66 1.99 17.32 2.98 18 4 C14.24600202 5.2039337 10.66782588 5.09877617 6.75 5.0625 C5.48671875 5.05347656 4.2234375 5.04445312 2.921875 5.03515625 C1.95765625 5.02355469 0.9934375 5.01195312 0 5 C0 3.35 0 1.7 0 0 Z " fill="#ED2C7C" transform="translate(144,128)"/>
<path d="M0 0 C0 1.65 0 3.3 0 5 C-6.74609618 4.33644956 -13.34448534 3.28134207 -20 2 C-20 1.67 -20 1.34 -20 1 C-13.34362157 -0.23839599 -6.7528064 -0.09139136 0 0 Z " fill="#E2E81A" transform="translate(176,148)"/>
<path d="M0 0 C0 5.28 0 10.56 0 16 C-0.99 16.33 -1.98 16.66 -3 17 C-4 16 -4 16 -4.09765625 12.62109375 C-4.09098369 11.22652923 -4.07902532 9.83198257 -4.0625 8.4375 C-4.05798828 7.72658203 -4.05347656 7.01566406 -4.04882812 6.28320312 C-4.03700864 4.52209987 -4.01907263 2.76103964 -4 1 C-2 0 -2 0 0 0 Z " fill="#EDC424" transform="translate(111,207)"/>
<path d="M0 0 C2.64 0.33 5.28 0.66 8 1 C8.625 2.875 8.625 2.875 9 5 C8.34 5.66 7.68 6.32 7 7 C5.96157435 9.31648799 4.9578025 11.64903024 4 14 C3.9175 13.484375 3.835 12.96875 3.75 12.4375 C3.03227382 10.10488991 2.14320759 8.50161717 0.875 6.4375 C0.25625 5.303125 -0.3625 4.16875 -1 3 C-0.67 2.01 -0.34 1.02 0 0 Z " fill="#BCDF48" transform="translate(101,123)"/>
<path d="M0 0 C2.97 0 5.94 0 9 0 C8.8125 2.875 8.8125 2.875 8 6 C5.5625 7.3125 5.5625 7.3125 3 8 C2.01 8.495 2.01 8.495 1 9 C1 8.01 1 7.02 1 6 C0.34 6 -0.32 6 -1 6 C-0.67 4.02 -0.34 2.04 0 0 Z " fill="#A7D961" transform="translate(131,112)"/>
<path d="M0 0 C-0.33 0.99 -0.66 1.98 -1 3 C-2.98 3 -4.96 3 -7 3 C-7 3.66 -7 4.32 -7 5 C-10.3 5.33 -13.6 5.66 -17 6 C-17 4.35 -17 2.7 -17 1 C-14.72926348 0.83201949 -12.45840707 0.66565887 -10.1875 0.5 C-8.29064453 0.36078125 -8.29064453 0.36078125 -6.35546875 0.21875 C-4.24021483 0.08085219 -2.11974408 0 0 0 Z " fill="#EEE80F" transform="translate(161,117)"/>
<path d="M0 0 C1.32 0 2.64 0 4 0 C4 4.62 4 9.24 4 14 C2.68 14.33 1.36 14.66 0 15 C0 10.05 0 5.1 0 0 Z " fill="#FFFFFF" transform="translate(94,90)"/>
<path d="M0 0 C0 0.99 0 1.98 0 3 C-1.16015625 2.98259766 -1.16015625 2.98259766 -2.34375 2.96484375 C-8.33936364 2.91290155 -14.07302983 3.08815844 -20 4 C-20 3.34 -20 2.68 -20 2 C-17.79865472 1.27023896 -15.58850387 0.56700639 -13.375 -0.125 C-12.14523438 -0.51945312 -10.91546875 -0.91390625 -9.6484375 -1.3203125 C-5.6493082 -2.0653323 -3.67518557 -1.61708165 0 0 Z " fill="#5EC5BA" transform="translate(70,114)"/>
<path d="M0 0 C1.32 0 2.64 0 4 0 C4 4.62 4 9.24 4 14 C2.68 14 1.36 14 0 14 C0 9.38 0 4.76 0 0 Z " fill="#FFFFFF" transform="translate(158,161)"/>
<path d="M0 0 C0.68126953 0.08314453 1.36253906 0.16628906 2.06445312 0.25195312 C5.56955603 0.72227545 7.57072466 1.19298311 10.5625 3.1875 C2.9725 3.1875 -4.6175 3.1875 -12.4375 3.1875 C-8.00339227 -1.24660773 -5.87769588 -0.81281401 0 0 Z " fill="#4077A9" transform="translate(159.4375,149.8125)"/>
<path d="M0 0 C0.33 0 0.66 0 1 0 C1 1.98 1 3.96 1 6 C2.32 6.66 3.64 7.32 5 8 C1.38026598 9.31626692 -1.09567131 10 -5 10 C-5.66 8.68 -6.32 7.36 -7 6 C-5.35 4.35 -3.7 2.7 -2 1 C-1.67 1.66 -1.34 2.32 -1 3 C-0.67 2.01 -0.34 1.02 0 0 Z " fill="#EDBE28" transform="translate(206,132)"/>
<path d="M0 0 C0.66 0 1.32 0 2 0 C2 4.29 2 8.58 2 13 C0.68 13.33 -0.64 13.66 -2 14 C-2.05389087 12.04196493 -2.09274217 10.08351091 -2.125 8.125 C-2.14820312 7.03445312 -2.17140625 5.94390625 -2.1953125 4.8203125 C-2 2 -2 2 0 0 Z " fill="#6AC8AB" transform="translate(109,40)"/>
<path d="M0 0 C1.875 2.5 1.875 2.5 3 5 C-0.63 5 -4.26 5 -8 5 C-8.66 3.68 -9.32 2.36 -10 1 C-6.58827648 -0.04976108 -3.55430783 -0.45374142 0 0 Z " fill="#ED9944" transform="translate(217,148)"/>
<path d="M0 0 C2.97 0.33 5.94 0.66 9 1 C9 2.65 9 4.3 9 6 C6.03 6 3.06 6 0 6 C0 4.02 0 2.04 0 0 Z " fill="#8AD083" transform="translate(182,141)"/>
<path d="M0 0 C1.32 0 2.64 0 4 0 C4 3.96 4 7.92 4 12 C2.68 12 1.36 12 0 12 C0 8.04 0 4.08 0 0 Z " fill="#C09270" transform="translate(107,184)"/>
<path d="M0 0 C3 1 3 1 4 3 C4.06950541 4.54023996 4.08452357 6.08334988 4.0625 7.625 C4.05347656 8.44226563 4.04445313 9.25953125 4.03515625 10.1015625 C4.02355469 10.72804688 4.01195313 11.35453125 4 12 C2.68 12 1.36 12 0 12 C0 8.04 0 4.08 0 0 Z " fill="#E6EA15" transform="translate(107,70)"/>
<path d="M0 0 C0 1.32 0 2.64 0 4 C-1.60379341 4.05416188 -3.20811406 4.09286638 -4.8125 4.125 C-5.70582031 4.14820312 -6.59914062 4.17140625 -7.51953125 4.1953125 C-10 4 -10 4 -13 2 C-11.5882217 1.46605821 -10.17029756 0.94834896 -8.75 0.4375 C-7.96109375 0.14746094 -7.1721875 -0.14257812 -6.359375 -0.44140625 C-3.80896548 -1.04522837 -2.44677771 -0.8473932 0 0 Z " fill="#ED3A74" transform="translate(176,116)"/>
<path d="M0 0 C3.3 0 6.6 0 10 0 C10.33 1.32 10.66 2.64 11 4 C7.04 4 3.08 4 -1 4 C-0.67 2.68 -0.34 1.36 0 0 Z " fill="#75CB9D" transform="translate(104,112)"/>
<path d="M0 0 C1.58971965 2.38457948 2.86741593 4.6304124 4.125 7.1875 C4.47820312 7.90292969 4.83140625 8.61835938 5.1953125 9.35546875 C5.46085937 9.89816406 5.72640625 10.44085938 6 11 C5.34 11.66 4.68 12.32 4 13 C-3 4.55172414 -3 4.55172414 -3 1 C-2.01 0.67 -1.02 0.34 0 0 Z " fill="#8AD184" transform="translate(91,138)"/>
<path d="M0 0 C0.99 0.33 1.98 0.66 3 1 C3.66666667 3 4.33333333 5 5 7 C5.99 7.33 6.98 7.66 8 8 C8 10.64 8 13.28 8 16 C7.34 16 6.68 16 6 16 C4.9955866 13.7101766 3.99632388 11.4183401 3 9.125 C2.71382813 8.47402344 2.42765625 7.82304687 2.1328125 7.15234375 C0 2.2265625 0 2.2265625 0 0 Z " fill="#D6E629" transform="translate(86,125)"/>
<path d="M0 0 C1.51400391 0.01740234 1.51400391 0.01740234 3.05859375 0.03515625 C4.07050781 0.04417969 5.08242187 0.05320313 6.125 0.0625 C7.29869141 0.07990234 7.29869141 0.07990234 8.49609375 0.09765625 C8.49609375 1.08765625 8.49609375 2.07765625 8.49609375 3.09765625 C3.21609375 3.09765625 -2.06390625 3.09765625 -7.50390625 3.09765625 C-6.18390625 2.43765625 -4.86390625 1.77765625 -3.50390625 1.09765625 C-2.50390625 0.09765625 -2.50390625 0.09765625 0 0 Z " fill="#64B6A4" transform="translate(167.50390625,144.90234375)"/>
<path d="M0 0 C2.64 0 5.28 0 8 0 C6.16536528 2.53354319 4.36751088 4.94129488 2 7 C1.34 7 0.68 7 0 7 C0 4.69 0 2.38 0 0 Z " fill="#D03396" transform="translate(144,144)"/>
<path d="M0 0 C2.31 0 4.62 0 7 0 C6.34 2.64 5.68 5.28 5 8 C4.34 8 3.68 8 3 8 C0 2.25 0 2.25 0 0 Z " fill="#91D37B" transform="translate(128,128)"/>
<path d="M0 0 C3.10011632 2.53645881 4.0575938 5.15184135 5 9 C4.625 11.375 4.625 11.375 4 13 C2 11 2 11 1.5625 8.5 C1.2234444 5.65063471 1.2234444 5.65063471 -2 4 C-1.34 2.68 -0.68 1.36 0 0 Z " fill="#66C7B0" transform="translate(100,126)"/>
<path d="M0 0 C1.64666203 0.1135629 3.29236082 0.24117381 4.9375 0.375 C5.85402344 0.44460937 6.77054688 0.51421875 7.71484375 0.5859375 C8.84599609 0.79089844 8.84599609 0.79089844 10 1 C10.33 1.66 10.66 2.32 11 3 C8.04335481 4.4783226 5.25770263 4.06032783 2 4 C1.34 2.68 0.68 1.36 0 0 Z " fill="#5BC4BD" transform="translate(57,149)"/>
<path d="M0 0 C1.66611905 -0.042721 3.33382885 -0.04063832 5 0 C6 1 6 1 6.09765625 2.84765625 C6.06510417 4.8984375 6.03255208 6.94921875 6 9 C2.91910327 6.22719294 1.31224548 3.93673644 0 0 Z " fill="#93D37A" transform="translate(14,112)"/>
<path d="M0 0 C0.33 0 0.66 0 1 0 C1 3.63 1 7.26 1 11 C-0.32 10.34 -1.64 9.68 -3 9 C-3.25873987 5.89512156 -3.23307327 4.37494396 -1.5625 1.6875 C-1.046875 1.130625 -0.53125 0.57375 0 0 Z " fill="#8FD17F" transform="translate(110,241)"/>
<path d="M0 0 C0 2.31 0 4.62 0 7 C-1.98 7.99 -1.98 7.99 -4 9 C-4 6.36 -4 3.72 -4 1 C-1 0 -1 0 0 0 Z " fill="#E4EA17" transform="translate(111,21)"/>
<path d="M0 0 C6.625 -0.25 6.625 -0.25 10 2 C6.77208445 4.1519437 5.71599191 4.20086443 2 4 C1.34 2.68 0.68 1.36 0 0 Z " fill="#EC4D69" transform="translate(204,145)"/>
<path d="M0 0 C4.62 0 9.24 0 14 0 C14 0.66 14 1.32 14 2 C10.37 2.33 6.74 2.66 3 3 C3 2.34 3 1.68 3 1 C2.01 1.33 1.02 1.66 0 2 C0 1.34 0 0.68 0 0 Z " fill="#EDAD31" transform="translate(144,133)"/>
<path d="M0 0 C0.66 0 1.32 0 2 0 C2.99 3.3 3.98 6.6 5 10 C4.01 10 3.02 10 2 10 C0.68373308 6.38026598 0 3.90432869 0 0 Z " fill="#57C3C0" transform="translate(88,122)"/>
<path d="M0 0 C-3.66539668 2.37706418 -6.49056835 2.05094317 -10.75 1.625 C-11.92046875 1.51414063 -13.0909375 1.40328125 -14.296875 1.2890625 C-15.18890625 1.19367188 -16.0809375 1.09828125 -17 1 C-17 0.67 -17 0.34 -17 0 C-11.06975197 -0.97040422 -5.93609666 -0.89316269 0 0 Z " fill="#ED5565" transform="translate(162,131)"/>
<path d="M0 0 C2.64 0 5.28 0 8 0 C6.02 0.99 6.02 0.99 4 2 C4 2.66 4 3.32 4 4 C2.35 4.33 0.7 4.66 -1 5 C-0.67 3.35 -0.34 1.7 0 0 Z " fill="#4FC1CB" transform="translate(131,112)"/>
<path d="M0 0 C2.97 0 5.94 0 9 0 C9 0.99 9 1.98 9 3 C6.03 3 3.06 3 0 3 C0 2.01 0 1.02 0 0 Z " fill="#48BFD3" transform="translate(78,112)"/>
<path d="M0 0 C1.32 0 2.64 0 4 0 C4 2.31 4 4.62 4 7 C3.01 7.33 2.02 7.66 1 8 C0.67 5.36 0.34 2.72 0 0 Z " fill="#E3EA19" transform="translate(22,112)"/>
<path d="M0 0 C-0.33 0.99 -0.66 1.98 -1 3 C-2.32 3 -3.64 3 -5 3 C-5.33 3.99 -5.66 4.98 -6 6 C-6.66 6 -7.32 6 -8 6 C-7.25 3.0625 -7.25 3.0625 -6 0 C-3.40948545 -1.21430369 -2.56984526 -1.28492263 0 0 Z " fill="#ADDB5A" transform="translate(47,120)"/>
<path d="M0 0 C0.99 0.33 1.98 0.66 3 1 C3.33 2.65 3.66 4.3 4 6 C2.02 6.99 2.02 6.99 0 8 C0 5.36 0 2.72 0 0 Z " fill="#8085B6" transform="translate(107,250)"/>
<path d="M0 0 C0.66 0 1.32 0 2 0 C5.28571429 7.42857143 5.28571429 7.42857143 6 11 C3 10 3 10 1.3125 7.1875 C0 4 0 4 0 0 Z " fill="#59C3BF" transform="translate(96,137)"/>
<path d="M0 0 C2.64 0.66 5.28 1.32 8 2 C7.67 3.32 7.34 4.64 7 6 C5.68 6 4.36 6 3 6 C2.01 4.02 1.02 2.04 0 0 Z " fill="#55C2C3" transform="translate(63,120)"/>
<path d="M0 0 C3.3 0 6.6 0 10 0 C5.78492722 3.16130459 4.93928888 3.3367697 0 3 C0 2.01 0 1.02 0 0 Z " fill="#61B9BD" transform="translate(144,141)"/>
<path d="M0 0 C0.66 0 1.32 0 2 0 C2 0.66 2 1.32 2 2 C5.465 1.505 5.465 1.505 9 1 C9 1.66 9 2.32 9 3 C5.7 3.33 2.4 3.66 -1 4 C-0.67 2.68 -0.34 1.36 0 0 Z " fill="#ED3E72" transform="translate(145,134)"/>
<path d="M0 0 C1.32 0.33 2.64 0.66 4 1 C3.67 2.65 3.34 4.3 3 6 C1.02 6 -0.96 6 -3 6 C-3 4.68 -3 3.36 -3 2 C-2.01 2 -1.02 2 0 2 C0 1.34 0 0.68 0 0 Z " fill="#EEAD32" transform="translate(163,114)"/>
<path d="M0 0 C1.32 0 2.64 0 4 0 C4 1.65 4 3.3 4 5 C2.68 5.33 1.36 5.66 0 6 C0 4.02 0 2.04 0 0 Z " fill="#AEDB59" transform="translate(107,0)"/>
<path d="M0 0 C1.32 0 2.64 0 4 0 C4 1.65 4 3.3 4 5 C2.68 5.33 1.36 5.66 0 6 C0 4.02 0 2.04 0 0 Z " fill="#EA7A51" transform="translate(107,184)"/>
<path d="M0 0 C0.99 0.33 1.98 0.66 3 1 C3 1.99 3 2.98 3 4 C0.36 4 -2.28 4 -5 4 C-3.36587557 2.29159719 -2.13093906 1.06546953 0 0 Z " fill="#58C0BF" transform="translate(152,149)"/>
<path d="M0 0 C0 0.66 0 1.32 0 2 C-3.3 2.33 -6.6 2.66 -10 3 C-10 2.34 -10 1.68 -10 1 C-6.61981469 -0.04005702 -3.5219721 -0.08004482 0 0 Z " fill="#ED2581" transform="translate(154,122)"/>
<path d="M0 0 C2.475 0.495 2.475 0.495 5 1 C5.33 1.99 5.66 2.98 6 4 C4.02 4 2.04 4 0 4 C0 2.68 0 1.36 0 0 Z " fill="#56C3C3" transform="translate(0,116)"/>
<path d="M0 0 C0.33 0 0.66 0 1 0 C1 1.65 1 3.3 1 5 C-0.65 4.67 -2.3 4.34 -4 4 C-4 3.34 -4 2.68 -4 2 C-4.99 2.33 -5.98 2.66 -7 3 C-7 2.34 -7 1.68 -7 1 C-5.824375 1.309375 -5.824375 1.309375 -4.625 1.625 C-3.75875 1.74875 -2.8925 1.8725 -2 2 C-1.34 1.34 -0.68 0.68 0 0 Z " fill="#4798B8" transform="translate(190,142)"/>
<path d="M0 0 C0.33 0 0.66 0 1 0 C1.36923077 4.55384615 1.36923077 4.55384615 -0.5 6.8125 C-0.995 7.204375 -1.49 7.59625 -2 8 C-2.66 7.01 -3.32 6.02 -4 5 C-2.69254251 3.31295807 -1.35827971 1.64639965 0 0 Z " fill="#ED8C44" transform="translate(203,133)"/>
<path d="M0 0 C-0.33 0.99 -0.66 1.98 -1 3 C-4.3 2.67 -7.6 2.34 -11 2 C-11 1.67 -11 1.34 -11 1 C-3.375 0 -3.375 0 0 0 Z " fill="#EECE1E" transform="translate(161,117)"/>
<path d="M0 0 C0.99 0.33 1.98 0.66 3 1 C3.8125 2.9375 3.8125 2.9375 4 5 C3.34 5.66 2.68 6.32 2 7 C2 6.34 2 5.68 2 5 C1.34 5 0.68 5 0 5 C0 3.35 0 1.7 0 0 Z " fill="#9CD56F" transform="translate(107,70)"/>
<path d="M0 0 C2.31 0.66 4.62 1.32 7 2 C6.34 2.66 5.68 3.32 5 4 C2.375 3.625 2.375 3.625 0 3 C0 2.01 0 1.02 0 0 Z " fill="#6DC9A8" transform="translate(67,128)"/>
<path d="M0 0 C0 0.99 0 1.98 0 3 C-2.64 3.33 -5.28 3.66 -8 4 C-8 3.34 -8 2.68 -8 2 C-2.25 0 -2.25 0 0 0 Z " fill="#84CF8B" transform="translate(58,114)"/>
</svg>
